<svg xmlns="http://www.w3.org/2000/svg" xmlns:xlink="http://www.w3.org/1999/xlink" width="158" height="158" viewBox="0 0 158 158">
  <defs>
    <filter id="Rectangle_562" x="23.272" y="20.774" width="117.457" height="116.452" filterUnits="userSpaceOnUse">
      <feOffset dy="3" input="SourceAlpha"/>
      <feGaussianBlur stdDeviation="3" result="blur"/>
      <feFlood flood-opacity="0.161"/>
      <feComposite operator="in" in2="blur"/>
      <feComposite in="SourceGraphic"/>
    </filter>
    <filter id="Path_55" x="0" y="0" width="158" height="158" filterUnits="userSpaceOnUse">
      <feOffset dx="-3" dy="3" input="SourceAlpha"/>
      <feGaussianBlur stdDeviation="3" result="blur-2"/>
      <feFlood flood-opacity="0.2"/>
      <feComposite operator="in" in2="blur-2"/>
      <feComposite in="SourceGraphic"/>
    </filter>
    <filter id="Intersection_2" x="23.271" y="20.774" width="117.457" height="116.452" filterUnits="userSpaceOnUse">
      <feOffset dy="3" input="SourceAlpha"/>
      <feGaussianBlur stdDeviation="3" result="blur-3"/>
      <feFlood flood-opacity="0.161"/>
      <feComposite operator="in" in2="blur-3"/>
      <feComposite in="SourceGraphic"/>
    </filter>
    <clipPath id="clip-path">
      <rect id="Rectangle_560" data-name="Rectangle 560" width="99.457" height="98.452" fill="#fff"/>
    </clipPath>
  </defs>
  <g id="Actions" transform="translate(12 6)">
    <g id="Group_57" data-name="Group 57" transform="translate(-133.5 -206)">
      <g transform="matrix(1, 0, 0, 1, 121.5, 200)" filter="url(#Path_55)">
        <path id="Path_55-2" data-name="Path 55" d="M30.035,0h79.931A30.035,30.035,0,0,1,140,30.035v79.931A30.035,30.035,0,0,1,109.965,140H30.035A30.035,30.035,0,0,1,0,109.965V30.035A30.035,30.035,0,0,1,30.035,0Z" transform="translate(12 6)" fill="#fff"/>
      </g>
    </g>
    <g transform="matrix(1, 0, 0, 1, -12, -6)" filter="url(#Intersection_2)">
      <path id="Intersection_2-2" data-name="Intersection 2" d="M93.592,137.064c-11.515-2.263-22.979-4.792-34.45-7.277-6.124-1.326-9.519-5.477-9.015-10.806.517-5.455,4.447-8.933,10.675-9.15,3.786-.131,7.579-.068,11.969-.041a1.7,1.7,0,0,0,1.482-2.54C66.432,93.567,59.23,80.967,52.029,68.364c-.879-1.54-1.866-3.037-2.585-4.651A8.375,8.375,0,0,1,52.91,52.722a8.138,8.138,0,0,1,11.11,2.928c3,4.839,5.758,9.828,8.694,14.971a1.7,1.7,0,0,0,2.615.415c3.288-2.923,6.856-3.624,10.722-1.393a1.691,1.691,0,0,0,2.005-.25c4.314-4.111,6.786-4.468,12.252-1.949a1.7,1.7,0,0,0,1.855-.3c5.855-5.345,11.056-4.34,15.2,2.935,4.867,8.542,9.266,17.4,14.745,25.535,12.162,18.047,2.11,41.737-24.354,43.075q-.745.038-1.493.037A66.8,66.8,0,0,1,93.592,137.064ZM79.266,108.41Q67.22,87.232,55.091,66.1,67.176,87.258,79.266,108.41Zm4.4-13.282h0Zm-.676-.142-.019-.008ZM63.229,61.794q8.957,15.632,17.9,31.27c.271.474.436,1.132.847,1.38.3.184.616.349.937.507-.32-.158-.634-.323-.937-.507-.411-.247-.576-.905-.847-1.38q-8.949-15.636-17.9-31.27c-.882-1.539-1.456-3.612-2.792-4.436C61.772,58.182,62.347,60.255,63.229,61.794ZM94.7,88.529h0Zm-1.058-.387-.006-.005Zm-.023-.02c-.021-.017-.041-.036-.06-.055C93.577,88.086,93.6,88.1,93.618,88.122ZM86.477,76.1c2.126,3.813,4.21,7.662,6.559,11.337a3.449,3.449,0,0,0,.487.592,3.449,3.449,0,0,1-.487-.592C90.688,83.767,88.6,79.918,86.477,76.1c-1.607-2.882-3.662-5.223-7.144-3.263a4.046,4.046,0,0,0-2.432,3.6,4.046,4.046,0,0,1,2.432-3.6,4.938,4.938,0,0,1,2.416-.723C83.84,72.12,85.282,73.963,86.477,76.1Zm20.087,6.85h0Zm.059,0a1.7,1.7,0,0,0,1.593-1.306A1.7,1.7,0,0,1,106.623,82.954ZM99.436,72.6c1.817,3.208,3.562,6.464,5.572,9.546a1.974,1.974,0,0,0,.845.653,1.974,1.974,0,0,1-.845-.653C103,79.06,101.253,75.8,99.436,72.6l-.034-.059Zm13.554-2.482q.726,1.261,1.457,2.52-.73-1.258-1.457-2.52a7,7,0,0,0-.482-.732A7,7,0,0,1,112.99,70.114ZM45.2,71.954c-6.224-4.064-8.9-12.247-6.623-19.545A17.36,17.36,0,0,1,55.283,40.274c9.24,0,17.219,7.362,17.347,16.18.016,1.139-.868,2.291-1.334,3.436-.786-1.031-2.069-1.973-2.274-3.11-1.316-7.287-5.45-11.795-11.966-12.662a13.733,13.733,0,0,0-14.505,8.39c-2.481,6.028-.573,12.038,5.046,16.7.875.726,1.075,2.267,1.587,3.432C47.841,72.433,46.235,72.631,45.2,71.954Z" transform="translate(-5.5 -13.5)" fill="#fff"/>
    </g>
    <g id="Group_141" data-name="Group 141" transform="translate(20.271 20.774)">
      <g id="Group_140" data-name="Group 140" clip-path="url(#clip-path)">
        <path id="Path_86" data-name="Path 86" d="M17.512,0c9.241,0,17.219,7.362,17.347,16.18.016,1.139-.867,2.291-1.334,3.437-.785-1.032-2.069-1.973-2.274-3.11C29.935,9.219,25.8,4.712,19.285,3.845A13.732,13.732,0,0,0,4.78,12.235c-2.481,6.028-.574,12.037,5.046,16.7.875.726,1.075,2.267,1.587,3.431-1.343-.206-2.949-.008-3.985-.684C1.2,27.615-1.476,19.433.8,12.135A17.36,17.36,0,0,1,17.512,0" transform="translate(0 0)"/>
        <path id="Path_87" data-name="Path 87" d="M162.734,126.892c-5.479-8.132-9.878-16.993-14.745-25.535-4.144-7.275-9.345-8.28-15.2-2.935a1.7,1.7,0,0,1-1.855.3c-5.466-2.519-7.938-2.163-12.252,1.948a1.691,1.691,0,0,1-2.006.251c-3.865-2.232-7.434-1.53-10.721,1.393a1.7,1.7,0,0,1-2.615-.415c-2.936-5.143-5.7-10.131-8.694-14.971A8.139,8.139,0,0,0,83.535,84a8.375,8.375,0,0,0-3.466,10.991c.719,1.614,1.706,3.111,2.585,4.651,7.2,12.6,14.4,25.2,22.224,38.886a1.7,1.7,0,0,1-1.482,2.54c-4.391-.027-8.183-.09-11.97.041-6.228.216-10.158,3.695-10.675,9.15-.5,5.329,2.892,9.48,9.016,10.806,11.471,2.484,22.935,5.014,34.45,7.276,4.657.915,9.476,1.863,14.163,1.626,26.464-1.338,36.516-25.028,24.354-43.075m-9.646,34.84a52.764,52.764,0,0,1-9.98,3.726h0l-1.43.41c-4.578,1.16-8.228.516-13.742-.6-6.2-1.255-11.95-2.421-17.7-3.613-6.413-1.329-12.815-2.717-19.214-4.107-4.513-.981-6.823-3.509-6.5-7.034s3.045-5.64,7.65-5.787c5.048-.16,10.1-.182,15.152-.338,4.089-.126,4.632-1.075,2.567-4.706Q97.845,118.509,85.716,97.379c-.812-1.421-2.2-2.871-2.2-4.31,0-1.895.582-4.683,1.876-5.436,1.308-.762,4.078.022,5.668,1,1.336.825,1.91,2.9,2.792,4.436q8.958,15.632,17.9,31.271c.271.474.436,1.132.847,1.38.3.184.617.349.937.507a1.692,1.692,0,0,0,2.377-2.006,1.4,1.4,0,0,0-.095-.223c-2.143-4.113-4.45-8.145-6.835-12.124-1.755-2.926-2.459-5.825.971-7.755,3.482-1.96,5.537.381,7.144,3.262,2.126,3.814,4.21,7.662,6.559,11.338a3.492,3.492,0,0,0,.486.592,1.7,1.7,0,0,0,2.876-1.432,4.11,4.11,0,0,0-.308-1.128c-1.288-2.847-3.055-5.476-4.6-8.206-1.575-2.776-1.5-5.428,1.48-7.036,2.754-1.489,4.973-.281,6.47,2.363,1.817,3.207,3.562,6.464,5.572,9.546a1.97,1.97,0,0,0,.845.653,1.691,1.691,0,0,0,2.4-1.384,2.286,2.286,0,0,0-.122-1.056c-.826-2-2.173-3.784-3.132-5.742-1.248-2.55-.854-4.922,1.7-6.37s4.866-.6,6.288,1.87c6.2,10.763,12.65,21.4,18.344,32.427a20.84,20.84,0,0,1-8.871,27.913" transform="translate(-68.396 -71.552)"/>
        <path id="Path_88" data-name="Path 88" d="M179.953,189.551a52.762,52.762,0,0,1-9.98,3.726h0l-1.43.41c-4.578,1.16-8.228.517-13.742-.6-6.2-1.255-11.95-2.421-17.7-3.613-6.413-1.329-12.815-2.717-19.214-4.107-4.513-.981-6.823-3.509-6.5-7.033s3.045-5.64,7.65-5.787c5.048-.16,10.1-.182,15.152-.338,4.089-.126,4.632-1.075,2.567-4.706Q124.71,146.328,112.581,125.2c-.812-1.421-2.2-2.871-2.2-4.31,0-1.895.582-4.683,1.876-5.436,1.308-.762,4.078.022,5.668,1,1.336.825,1.91,2.9,2.792,4.436q8.958,15.632,17.9,31.271c.271.474.436,1.132.847,1.38.3.184.616.349.937.507a1.692,1.692,0,0,0,2.377-2.006,1.4,1.4,0,0,0-.095-.223c-2.143-4.113-4.45-8.145-6.835-12.124-1.755-2.926-2.459-5.825.971-7.755,3.483-1.96,5.537.381,7.144,3.262,2.126,3.814,4.21,7.662,6.559,11.338a3.494,3.494,0,0,0,.486.592,1.7,1.7,0,0,0,2.876-1.432,4.11,4.11,0,0,0-.308-1.128c-1.288-2.847-3.055-5.476-4.6-8.206-1.575-2.776-1.5-5.428,1.48-7.036,2.754-1.489,4.973-.281,6.47,2.363,1.817,3.207,3.562,6.464,5.572,9.546a1.971,1.971,0,0,0,.845.653,1.691,1.691,0,0,0,2.4-1.384,2.286,2.286,0,0,0-.122-1.056c-.826-2-2.173-3.784-3.132-5.742-1.248-2.55-.854-4.922,1.7-6.37s4.866-.6,6.288,1.87c6.2,10.763,12.65,21.4,18.344,32.427a20.84,20.84,0,0,1-8.871,27.913" transform="translate(-95.262 -99.371)" fill="#fff"/>
      </g>
    </g>
  </g>
</svg>
