<svg xmlns="http://www.w3.org/2000/svg" xmlns:xlink="http://www.w3.org/1999/xlink" width="158" height="158" viewBox="0 0 158 158">
  <defs>
    <filter id="Rectangle_565" x="1.917" y="5.15" width="153.997" height="153.997" filterUnits="userSpaceOnUse">
      <feOffset dx="-3" dy="3" input="SourceAlpha"/>
      <feGaussianBlur stdDeviation="3" result="blur"/>
      <feFlood flood-opacity="0.2"/>
      <feComposite operator="in" in2="blur"/>
      <feComposite in="SourceGraphic"/>
    </filter>
    <filter id="Path_100" x="0" y="0" width="158" height="158" filterUnits="userSpaceOnUse">
      <feOffset dx="-3" dy="3" input="SourceAlpha"/>
      <feGaussianBlur stdDeviation="3" result="blur-2"/>
      <feFlood flood-opacity="0.2"/>
      <feComposite operator="in" in2="blur-2"/>
      <feComposite in="SourceGraphic"/>
    </filter>
    <filter id="Intersection_4" x="14.95" y="18.183" width="121.356" height="118.038" filterUnits="userSpaceOnUse">
      <feOffset dx="-3" dy="3" input="SourceAlpha"/>
      <feGaussianBlur stdDeviation="3" result="blur-3"/>
      <feFlood flood-opacity="0.2"/>
      <feComposite operator="in" in2="blur-3"/>
      <feComposite in="SourceGraphic"/>
    </filter>
  </defs>
  <g id="Admin_Access" data-name="Admin Access" transform="translate(12 6)">
    <g transform="matrix(1, 0, 0, 1, -12, -6)" filter="url(#Path_100)">
      <path id="Path_100-2" data-name="Path 100" d="M30.035,0h79.931A30.035,30.035,0,0,1,140,30.035v79.931A30.035,30.035,0,0,1,109.965,140H30.035A30.035,30.035,0,0,1,0,109.965V30.035A30.035,30.035,0,0,1,30.035,0Z" transform="translate(12 6)" fill="#fff"/>
    </g>
    <g id="Group_154" data-name="Group 154" transform="translate(-130.612 -197.457)">
      <g id="Group_1" data-name="Group 1" transform="translate(145.562 215.64)">
        <g transform="matrix(1, 0, 0, 1, -26.95, -24.18)" filter="url(#Intersection_4)">
          <path id="Intersection_4-2" data-name="Intersection 4" d="M99.4,100.032c-5.673-.222-11.352-.354-17.924-.548.389-2.757.859-6.1,1.4-9.913L71.2,90.342c.285-3.907.519-7.11.776-10.62l-10.289-.279c-.088-3.428-.168-6.623-.258-10.177-3.529-.021-7-.159-10.45-.015-2.058.085-3.7-.32-4.964-2.02-1.45-1.449-3.531-3.5-5.9-5.512A31.462,31.462,0,1,1,61.66,40.336a6.822,6.822,0,0,0,.907,1.078C75.534,54.305,88.428,67.269,101.4,80.151a5.749,5.749,0,0,1,1.942,4.726c-.189,3.877-.17,7.762-.226,11.646a3.738,3.738,0,0,1-.869,2.654l-.036.036a3.457,3.457,0,0,1-2.525.824C99.594,100.038,99.5,100.036,99.4,100.032Zm-82.907-85.8A9.34,9.34,0,1,0,23.1,11.49,9.343,9.343,0,0,0,16.489,14.227Z" transform="translate(26.95 24.18)" fill="#414141"/>
        </g>
      </g>
    </g>
  </g>
</svg>
