<svg xmlns="http://www.w3.org/2000/svg" width="51.893" height="25.159" viewBox="0 0 51.893 25.159">
  <g id="Battery_Charge_4_v2" data-name="Battery Charge 4 v2" transform="translate(-3226.5 3012.5)">
    <path id="Subtraction_26" data-name="Subtraction 26" d="M45.751,24.159H10.071a5.149,5.149,0,0,1-5.144-5.144v-.42H2.176A2.179,2.179,0,0,1,0,16.419V8.075A2.179,2.179,0,0,1,2.176,5.9H4.927V5.144A5.149,5.149,0,0,1,10.071,0h35.68a5.149,5.149,0,0,1,5.143,5.143V19.015A5.149,5.149,0,0,1,45.751,24.159ZM10.143,1.654A3.349,3.349,0,0,0,6.8,5v14.16A3.349,3.349,0,0,0,10.143,22.5H45.679a3.349,3.349,0,0,0,3.344-3.345V5a3.349,3.349,0,0,0-3.344-3.345Zm35.149,19.89H40.778a2.242,2.242,0,0,1-2.239-2.239V5.189a2.242,2.242,0,0,1,2.239-2.239h4.514a2.242,2.242,0,0,1,2.239,2.239V19.305A2.242,2.242,0,0,1,45.292,21.544Zm-10.107,0H30.671a2.242,2.242,0,0,1-2.239-2.239V5.189a2.242,2.242,0,0,1,2.239-2.239h4.514a2.242,2.242,0,0,1,2.239,2.239V19.305A2.242,2.242,0,0,1,35.185,21.544Zm-10.107,0H20.564a2.242,2.242,0,0,1-2.239-2.239V5.189a2.242,2.242,0,0,1,2.239-2.239h4.514a2.242,2.242,0,0,1,2.239,2.239V19.305A2.242,2.242,0,0,1,25.078,21.544Zm-10.106,0H10.458a2.242,2.242,0,0,1-2.239-2.239V5.189a2.242,2.242,0,0,1,2.239-2.239h4.514a2.242,2.242,0,0,1,2.239,2.239V19.305A2.242,2.242,0,0,1,14.972,21.544Zm.522-15.685L9,13.029h3.681L9.842,19l7.043-7.388-3.952-.094Z" transform="translate(3227 -3012)" fill="#fff" stroke="rgba(0,0,0,0)" stroke-miterlimit="10" stroke-width="1"/>
  </g>
</svg>
