<svg xmlns="http://www.w3.org/2000/svg" width="50.893" height="24.159" viewBox="0 0 50.893 24.159">
  <g id="Batt_Charge_2" data-name="Batt Charge 2" transform="translate(-3491.998 3065)">
    <path id="Path_155" data-name="Path 155" d="M310.748,0H275.069a5.144,5.144,0,0,0-5.143,5.143V5.9h-2.752A2.177,2.177,0,0,0,265,8.075v8.344a2.176,2.176,0,0,0,2.176,2.176h2.752v.421a5.144,5.144,0,0,0,5.143,5.143h35.679a5.143,5.143,0,0,0,5.143-5.143V5.143A5.144,5.144,0,0,0,310.748,0m3.273,19.159a3.345,3.345,0,0,1-3.345,3.341H275.141a3.345,3.345,0,0,1-3.343-3.341V5a3.345,3.345,0,0,1,3.345-3.345h35.533A3.345,3.345,0,0,1,314.021,5Z" transform="translate(3227 -3065)" fill="#fff"/>
    <path id="Path_156" data-name="Path 156" d="M302.422,10.489v-.04l-.017.04Z" transform="translate(3227 -3065)" fill="#fff"/>
    <path id="Path_157" data-name="Path 157" d="M302.042,12.835h-5.349l5.729-6.755V5.188a2.24,2.24,0,0,0-2.239-2.239H295.67a2.239,2.239,0,0,0-2.239,2.239V19.3a2.238,2.238,0,0,0,2.239,2.239h2.494Z" transform="translate(3227 -3065)" fill="#fff"/>
    <path id="Path_158" data-name="Path 158" d="M298.415,21.539h1.768v.005a2.239,2.239,0,0,0,2.239-2.239V17.052Z" transform="translate(3227 -3065)" fill="#fff"/>
    <path id="Path_171" data-name="Path 171" d="M304.936,3.114A2.238,2.238,0,0,0,303.592,4.7Z" transform="translate(3227 -3065)" fill="#fff"/>
    <path id="Path_172" data-name="Path 172" d="M310.287,2.949h-4.513c-.061,0-.119.013-.179.018l-2.06,4.858v2.693l4.616.118-4.616,5.169V19.3a2.238,2.238,0,0,0,2.239,2.239h4.513a2.239,2.239,0,0,0,2.239-2.234V5.188a2.238,2.238,0,0,0-2.239-2.239" transform="translate(3227 -3065)" fill="#fff"/>
  </g>
</svg>
