<svg id="Batt_empty" data-name="Batt empty" xmlns="http://www.w3.org/2000/svg" xmlns:xlink="http://www.w3.org/1999/xlink" width="50.894" height="24.159" viewBox="0 0 50.894 24.159">
  <defs>
    <clipPath id="clip-path">
      <rect id="Rectangle_65" data-name="Rectangle 65" width="50.893" height="24.159" fill="#fff"/>
    </clipPath>
  </defs>
  <g id="Group_186" data-name="Group 186" opacity="0.9">
    <g id="Group_38" data-name="Group 38" clip-path="url(#clip-path)">
      <path id="Path_23" data-name="Path 23" d="M45.75,0H10.071A5.143,5.143,0,0,0,4.928,5.143V5.9H2.176A2.176,2.176,0,0,0,0,8.075v8.344a2.176,2.176,0,0,0,2.176,2.176H4.928v.421a5.143,5.143,0,0,0,5.143,5.143H45.75a5.143,5.143,0,0,0,5.143-5.143V5.143A5.143,5.143,0,0,0,45.75,0m3.273,19.159A3.345,3.345,0,0,1,45.678,22.5H10.143A3.345,3.345,0,0,1,6.8,19.159V5a3.345,3.345,0,0,1,3.345-3.345H45.678A3.345,3.345,0,0,1,49.023,5Z" fill="#fff"/>
    </g>
  </g>
</svg>
