<svg xmlns="http://www.w3.org/2000/svg" width="50.894" height="24.159" viewBox="0 0 50.894 24.159">
  <g id="Battery_Charge_2_v2" data-name="Battery Charge 2 v2" transform="translate(-3380 3012)">
    <path id="Subtraction_24" data-name="Subtraction 24" d="M6.753,18.595H2.239A2.242,2.242,0,0,1,0,16.356V2.239A2.242,2.242,0,0,1,2.239,0H6.753A2.242,2.242,0,0,1,8.992,2.239V16.356A2.242,2.242,0,0,1,6.753,18.595ZM7.061,2.91.569,10.08H4.25l-2.84,5.971L8.453,8.663,4.5,8.568Z" transform="translate(3408.432 -3009.051)" fill="#fff" stroke="rgba(0,0,0,0)" stroke-miterlimit="10" stroke-width="1"/>
    <g id="Group_251" data-name="Group 251" transform="translate(3380 -3012)" opacity="0.9">
      <g id="Group_253" data-name="Group 253">
        <path id="Path_23" data-name="Path 23" d="M45.75,0H10.071A5.143,5.143,0,0,0,4.928,5.143V5.9H2.176A2.176,2.176,0,0,0,0,8.075v8.344a2.176,2.176,0,0,0,2.176,2.176H4.928v.421a5.143,5.143,0,0,0,5.143,5.143H45.75a5.143,5.143,0,0,0,5.143-5.143V5.143A5.143,5.143,0,0,0,45.75,0m3.273,19.159A3.345,3.345,0,0,1,45.678,22.5H10.143A3.345,3.345,0,0,1,6.8,19.159V5a3.345,3.345,0,0,1,3.345-3.345H45.678A3.345,3.345,0,0,1,49.023,5Z" fill="#fff"/>
        <path id="Path_27" data-name="Path 27" d="M243.4,36.7h-4.513a2.239,2.239,0,0,1-2.239-2.239V20.349a2.239,2.239,0,0,1,2.239-2.239H243.4a2.239,2.239,0,0,1,2.239,2.239V34.466A2.239,2.239,0,0,1,243.4,36.7" transform="translate(-198.111 -15.161)" fill="#fff"/>
      </g>
    </g>
  </g>
</svg>
