<svg xmlns="http://www.w3.org/2000/svg" width="50.893" height="24.159" viewBox="0 0 50.893 24.159">
  <g id="Batt_Charge_4" data-name="Batt Charge 4" transform="translate(-3227 3064.175)">
    <path id="Path_159" data-name="Path 159" d="M45.75.826H10.071A5.144,5.144,0,0,0,4.928,5.969v.757H2.176A2.177,2.177,0,0,0,0,8.9v8.344a2.176,2.176,0,0,0,2.176,2.176H4.928v.421a5.144,5.144,0,0,0,5.143,5.143H45.75a5.144,5.144,0,0,0,5.143-5.143V5.969A5.144,5.144,0,0,0,45.75.826m3.273,19.159a3.345,3.345,0,0,1-3.345,3.341H10.143A3.345,3.345,0,0,1,6.8,19.985V5.826a3.346,3.346,0,0,1,3.345-3.345H45.678a3.346,3.346,0,0,1,3.345,3.345Z" transform="translate(3227 -3065)" fill="#fff"/>
    <path id="Path_160" data-name="Path 160" d="M14.971,22.365H10.457a2.238,2.238,0,0,1-2.239-2.239V6.014a2.238,2.238,0,0,1,2.239-2.239H14.97a2.238,2.238,0,0,1,2.239,2.239V20.131a2.24,2.24,0,0,1-2.238,2.234" transform="translate(3227 -3065)" fill="#fff"/>
    <path id="Path_161" data-name="Path 161" d="M45.289,22.365H40.776a2.238,2.238,0,0,1-2.239-2.239V6.014a2.238,2.238,0,0,1,2.239-2.239h4.513a2.238,2.238,0,0,1,2.239,2.239V20.131a2.239,2.239,0,0,1-2.239,2.234" transform="translate(3227 -3065)" fill="#fff"/>
    <path id="Path_162" data-name="Path 162" d="M27.317,14.278v-.267h-5.23l5.23-6.168V6.015a2.238,2.238,0,0,0-2.239-2.239H20.565a2.238,2.238,0,0,0-2.239,2.239V20.127a2.239,2.239,0,0,0,2.239,2.239h3.149Z" transform="translate(3227 -3065)" fill="#fff"/>
    <path id="Path_163" data-name="Path 163" d="M24.121,22.365h.957a2.239,2.239,0,0,0,2.239-2.234V18.786Z" transform="translate(3227 -3065)" fill="#fff"/>
    <path id="Path_167" data-name="Path 167" d="M30.767,3.775h-.095a2.239,2.239,0,0,0-2.239,2.239v.513Z" transform="translate(3227 -3065)" fill="#fff"/>
    <path id="Path_168" data-name="Path 168" d="M35.185,3.775H31.144l-2.711,6.394V11.68l5.111.131-5.111,5.725v2.59a2.238,2.238,0,0,0,2.239,2.239h4.513v.005a2.238,2.238,0,0,0,2.239-2.239V6.014a2.238,2.238,0,0,0-2.239-2.239" transform="translate(3227 -3065)" fill="#fff"/>
  </g>
</svg>
