<svg id="Batt_2of4" data-name="Batt 2of4" xmlns="http://www.w3.org/2000/svg" xmlns:xlink="http://www.w3.org/1999/xlink" width="50.894" height="24.159" viewBox="0 0 50.894 24.159">
  <defs>
    <clipPath id="clip-path">
      <rect id="Rectangle_65" data-name="Rectangle 65" width="50.893" height="24.159" fill="#fff"/>
    </clipPath>
  </defs>
  <g id="Group_184" data-name="Group 184" opacity="0.9">
    <g id="Group_38" data-name="Group 38" clip-path="url(#clip-path)">
      <path id="Path_23" data-name="Path 23" d="M45.75,0H10.071A5.143,5.143,0,0,0,4.928,5.143V5.9H2.176A2.176,2.176,0,0,0,0,8.075v8.344a2.176,2.176,0,0,0,2.176,2.176H4.928v.421a5.143,5.143,0,0,0,5.143,5.143H45.75a5.143,5.143,0,0,0,5.143-5.143V5.143A5.143,5.143,0,0,0,45.75,0m3.273,19.159A3.345,3.345,0,0,1,45.678,22.5H10.143A3.345,3.345,0,0,1,6.8,19.159V5a3.345,3.345,0,0,1,3.345-3.345H45.678A3.345,3.345,0,0,1,49.023,5Z" fill="#fff"/>
      <path id="Path_26" data-name="Path 26" d="M181.342,36.7h-4.513a2.239,2.239,0,0,1-2.239-2.239V20.349a2.239,2.239,0,0,1,2.239-2.239h4.513a2.239,2.239,0,0,1,2.239,2.239V34.466a2.239,2.239,0,0,1-2.239,2.239" transform="translate(-146.157 -15.161)" fill="#fff"/>
      <path id="Path_27" data-name="Path 27" d="M243.4,36.7h-4.513a2.239,2.239,0,0,1-2.239-2.239V20.349a2.239,2.239,0,0,1,2.239-2.239H243.4a2.239,2.239,0,0,1,2.239,2.239V34.466A2.239,2.239,0,0,1,243.4,36.7" transform="translate(-198.111 -15.161)" fill="#fff"/>
    </g>
  </g>
</svg>
