<svg xmlns="http://www.w3.org/2000/svg" width="50.893" height="24.159" viewBox="0 0 50.893 24.159">
  <g id="Batt_Charge_1" data-name="Batt Charge 1" transform="translate(-3619.177 3065)">
    <path id="Path_164" data-name="Path 164" d="M437.927,0H402.248a5.143,5.143,0,0,0-5.143,5.143V5.9h-2.752a2.177,2.177,0,0,0-2.176,2.175v8.344a2.176,2.176,0,0,0,2.176,2.176h2.752v.421a5.143,5.143,0,0,0,5.143,5.143h35.679a5.144,5.144,0,0,0,5.143-5.143V5.143A5.144,5.144,0,0,0,437.927,0M441.2,19.159a3.345,3.345,0,0,1-3.345,3.341H402.32a3.345,3.345,0,0,1-3.343-3.341V5a3.346,3.346,0,0,1,3.345-3.345h35.533A3.346,3.346,0,0,1,441.2,5Z" transform="translate(3227 -3065)" fill="#fff"/>
    <path id="Path_165" data-name="Path 165" d="M437.466,21.539h-4.513a2.238,2.238,0,0,1-2.239-2.239V5.188a2.238,2.238,0,0,1,2.239-2.239h4.513A2.238,2.238,0,0,1,439.7,5.188V19.305a2.239,2.239,0,0,1-2.239,2.234" transform="translate(3227 -3065)" fill="#fff"/>
    <path id="Path_166" data-name="Path 166" d="M415.691,21.485l4.127-9.264h-5.349L423.9,1.094l-3.723,8.78,5.745.148Z" transform="translate(3227 -3065)" fill="#fff"/>
  </g>
</svg>
