<svg xmlns="http://www.w3.org/2000/svg" width="50.894" height="24.159" viewBox="0 0 50.894 24.159">
  <g id="Battery_Charge_1_v2" data-name="Battery Charge 1 v2" transform="translate(-3449 3012)">
    <path id="Subtraction_23" data-name="Subtraction 23" d="M6.753,18.595H2.239A2.242,2.242,0,0,1,0,16.356V2.239A2.242,2.242,0,0,1,2.239,0H6.753A2.242,2.242,0,0,1,8.992,2.239V16.356A2.242,2.242,0,0,1,6.753,18.595Zm.2-15.685L.462,10.08H4.143L1.3,16.051,8.347,8.663,4.395,8.568Z" transform="translate(3487.538 -3009.051)" fill="#fff" stroke="rgba(0,0,0,0)" stroke-miterlimit="10" stroke-width="1"/>
    <g id="Group_252" data-name="Group 252" transform="translate(3449 -3012)" opacity="0.9">
      <g id="Group_254" data-name="Group 254">
        <path id="Path_23" data-name="Path 23" d="M45.75,0H10.071A5.143,5.143,0,0,0,4.928,5.143V5.9H2.176A2.176,2.176,0,0,0,0,8.075v8.344a2.176,2.176,0,0,0,2.176,2.176H4.928v.421a5.143,5.143,0,0,0,5.143,5.143H45.75a5.143,5.143,0,0,0,5.143-5.143V5.143A5.143,5.143,0,0,0,45.75,0m3.273,19.159A3.345,3.345,0,0,1,45.678,22.5H10.143A3.345,3.345,0,0,1,6.8,19.159V5a3.345,3.345,0,0,1,3.345-3.345H45.678A3.345,3.345,0,0,1,49.023,5Z" fill="#fff"/>
      </g>
    </g>
  </g>
</svg>
