<svg xmlns="http://www.w3.org/2000/svg" width="50.893" height="24.159" viewBox="0 0 50.893 24.159">
  <g id="Batt_Charge_3" data-name="Batt Charge 3" transform="translate(-3364.819 3064.175)">
    <path id="Path_151" data-name="Path 151" d="M183.569.826H147.89a5.144,5.144,0,0,0-5.143,5.143v.757h-2.752A2.177,2.177,0,0,0,137.819,8.9v8.344a2.176,2.176,0,0,0,2.176,2.176h2.752v.421a5.144,5.144,0,0,0,5.143,5.143h35.679a5.144,5.144,0,0,0,5.143-5.143V5.969A5.144,5.144,0,0,0,183.569.826m3.273,19.159a3.345,3.345,0,0,1-3.345,3.341H147.962a3.345,3.345,0,0,1-3.343-3.341V5.826a3.346,3.346,0,0,1,3.345-3.345H183.5a3.346,3.346,0,0,1,3.345,3.345Z" transform="translate(3227 -3065)" fill="#fff"/>
    <path id="Path_152" data-name="Path 152" d="M183.108,22.365H178.6a2.238,2.238,0,0,1-2.239-2.239V6.014A2.238,2.238,0,0,1,178.6,3.775h4.513a2.238,2.238,0,0,1,2.239,2.239V20.131a2.239,2.239,0,0,1-2.239,2.234" transform="translate(3227 -3065)" fill="#fff"/>
    <path id="Path_153" data-name="Path 153" d="M165.136,14.278v-.267h-5.23l5.23-6.168V6.015A2.238,2.238,0,0,0,162.9,3.776h-4.513a2.238,2.238,0,0,0-2.239,2.239V20.127a2.239,2.239,0,0,0,2.239,2.239h3.149Z" transform="translate(3227 -3065)" fill="#fff"/>
    <path id="Path_154" data-name="Path 154" d="M161.94,22.365h.957a2.239,2.239,0,0,0,2.239-2.234V18.786Z" transform="translate(3227 -3065)" fill="#fff"/>
    <path id="Path_169" data-name="Path 169" d="M173,3.775h-4.041l-2.711,6.394V11.68l5.111.131-5.111,5.725v2.59a2.238,2.238,0,0,0,2.239,2.239H173v.005a2.238,2.238,0,0,0,2.239-2.239V6.014A2.238,2.238,0,0,0,173,3.775" transform="translate(3227 -3065)" fill="#fff"/>
    <path id="Path_170" data-name="Path 170" d="M168.586,3.775h-.1a2.239,2.239,0,0,0-2.239,2.239v.513Z" transform="translate(3227 -3065)" fill="#fff"/>
  </g>
</svg>
