<svg xmlns="http://www.w3.org/2000/svg" xmlns:xlink="http://www.w3.org/1999/xlink" width="158" height="158" viewBox="0 0 158 158">
  <defs>
    <filter id="Path_55" x="0" y="0" width="158" height="158" filterUnits="userSpaceOnUse">
      <feOffset dx="-3" dy="3" input="SourceAlpha"/>
      <feGaussianBlur stdDeviation="3" result="blur"/>
      <feFlood flood-opacity="0.2"/>
      <feComposite operator="in" in2="blur"/>
      <feComposite in="SourceGraphic"/>
    </filter>
    <clipPath id="clip-path">
      <rect id="Rectangle_551" data-name="Rectangle 551" width="107.622" height="81.417" fill="#004b66"/>
    </clipPath>
    <clipPath id="clip-path-2">
      <rect id="Rectangle_552" data-name="Rectangle 552" width="51.297" height="22.586" fill="#004b66"/>
    </clipPath>
  </defs>
  <g id="Close_Lid" data-name="Close Lid" transform="translate(12 6)">
    <g id="Group_1" data-name="Group 1" transform="translate(-3900 153)">
      <g transform="matrix(1, 0, 0, 1, 3888, -159)" filter="url(#Path_55)">
        <path id="Path_55-2" data-name="Path 55" d="M30.035,0h79.931A30.035,30.035,0,0,1,140,30.035v79.931A30.035,30.035,0,0,1,109.965,140H30.035A30.035,30.035,0,0,1,0,109.965V30.035A30.035,30.035,0,0,1,30.035,0Z" transform="translate(12 6)" fill="#fff"/>
      </g>
    </g>
    <g id="Group_119" data-name="Group 119" transform="translate(21.224 58.621)">
      <g id="Group_118" data-name="Group 118" transform="translate(0 0)" clip-path="url(#clip-path)">
        <path id="Path_69" data-name="Path 69" d="M67.488.715C57.83-.946,37.846.6,23.252,2.168S-1.439,9.326.168,18.779a523.657,523.657,0,0,1,6.59,62.638H86.536a175.02,175.02,0,0,1,.053-27.48c.5-5.121,21.033-30.175,21.033-30.175S90.6,10.3,87.09,7.221,77.146,2.376,67.488.715" transform="translate(0 0)" fill="#004b66"/>
      </g>
    </g>
    <g id="Group_121" data-name="Group 121" transform="translate(30.3 22.84)">
      <g id="Group_120" data-name="Group 120" transform="translate(0 0)" clip-path="url(#clip-path-2)">
        <path id="Path_70" data-name="Path 70" d="M51.3,17.65,47.213,1.634l-3.74,3.832A27.466,27.466,0,0,0,0,22.586H6.683A20.93,20.93,0,0,1,38.853,10.2L34.9,14.252Z" transform="translate(0 0)" fill="#004b66"/>
      </g>
    </g>
  </g>
</svg>
