<svg xmlns="http://www.w3.org/2000/svg" xmlns:xlink="http://www.w3.org/1999/xlink" width="158" height="158" viewBox="0 0 158 158">
  <defs>
    <filter id="Path_55" x="0" y="0" width="158" height="158" filterUnits="userSpaceOnUse">
      <feOffset dx="-3" dy="3" input="SourceAlpha"/>
      <feGaussianBlur stdDeviation="3" result="blur"/>
      <feFlood flood-opacity="0.2"/>
      <feComposite operator="in" in2="blur"/>
      <feComposite in="SourceGraphic"/>
    </filter>
  </defs>
  <g id="Delivery" transform="translate(7 6)">
    <g transform="matrix(1, 0, 0, 1, -7, -6)" filter="url(#Path_55)">
      <path id="Path_55-2" data-name="Path 55" d="M30.035,0h79.931A30.035,30.035,0,0,1,140,30.035v79.931A30.035,30.035,0,0,1,109.965,140H30.035A30.035,30.035,0,0,1,0,109.965V30.035A30.035,30.035,0,0,1,30.035,0Z" transform="translate(12 6)" fill="#fff"/>
    </g>
    <g id="Delivery-2" data-name="Delivery">
      <g id="Group_99" data-name="Group 99" transform="translate(6.952 5.347)">
        <g id="Group_167" data-name="Group 167" transform="translate(16.367 16.312)">
          <path id="Path_56" data-name="Path 56" d="M51.576,0a51.576,51.576,0,1,0,51.576,51.576A51.576,51.576,0,0,0,51.576,0M69.995,49.385c-.672,3.405-2.469,11.471-4.483,11.91a63.646,63.646,0,0,1-13.935,1.213,63.646,63.646,0,0,1-13.935-1.213c-2.014-.439-3.811-8.5-4.483-11.91a1.15,1.15,0,0,1,1.211-1.37c3.9.278,12.347.627,17.207.627s13.311-.349,17.207-.627a1.15,1.15,0,0,1,1.211,1.37M72.51,38.332c-.18,4.147-.8,5.376-1.278,6.441s-1.246,1.492-2.885,1.77-6.76.852-16.771.852-15.132-.574-16.771-.852-2.409-.7-2.885-1.77-1.1-2.295-1.278-6.441a13.782,13.782,0,0,1,.593-5.283,1.058,1.058,0,0,1,.723-.66c4.973-1.3,13.954-1.752,19.617-1.752s14.645.447,19.617,1.752a1.058,1.058,0,0,1,.723.66,13.783,13.783,0,0,1,.593,5.283M83.47,87.41C82.9,75.618,87.4,41.282,87.4,41.282c-2.68-1.746-8.9-3.049-11.407-3.639s-2.477-1.82-2.8-3.294c-.565-2.557-.926-2.327-3.663-2.8a127.83,127.83,0,0,0-17.951-1.352,127.83,127.83,0,0,0-17.951,1.352c-2.737.475-3.1.246-3.663,2.8-.326,1.474-.3,2.7-2.8,3.294s-8.728,1.893-11.407,3.639c0,0,4.5,34.336,3.93,46.128a47.97,47.97,0,1,1,63.788,0" transform="translate(0 -0.002)" fill="#00a0db"/>
          <path id="Path_57" data-name="Path 57" d="M915.812,858.75a.929.929,0,0,0-.655-.539c-4.5-1.066-12.641-1.431-17.771-1.431s-13.267.365-17.771,1.431a.929.929,0,0,0-.655.539,10.228,10.228,0,0,0-.537,4.315c.163,3.386.727,4.39,1.158,5.26s1.128,1.218,2.613,1.445a166.147,166.147,0,0,0,30.385,0c1.485-.228,2.182-.575,2.613-1.445s.995-1.874,1.158-5.26a10.228,10.228,0,0,0-.537-4.315m-25.781,6.783c-.557,1.483-.565-1.655-2.137-1.655s-2.042,2.491-2.288,1.483.492-4.876,2.288-4.876,2.592,3.837,2.137,5.048m19.134-.172c-.246,1.008-.717-1.483-2.288-1.483s-1.58,3.139-2.137,1.655c-.455-1.211.341-5.048,2.137-5.048s2.534,3.868,2.288,4.876" transform="translate(-845.81 -824.989)" fill="#00a0db"/>
        </g>
        <path id="Subtraction_9" data-name="Subtraction 9" d="M52.5,105A52.514,52.514,0,0,1,32.064,4.126a52.514,52.514,0,0,1,40.871,96.749A52.174,52.174,0,0,1,52.5,105Zm0-94.672A42.172,42.172,0,1,0,94.673,52.5,42.22,42.22,0,0,0,52.5,10.328Z" transform="translate(16.048 15.653)" fill="#00a0db"/>
      </g>
      <rect id="Rectangle_522" data-name="Rectangle 522" width="150" height="144" fill="none"/>
    </g>
  </g>
</svg>
