<svg xmlns="http://www.w3.org/2000/svg" width="110.656" height="159.743" viewBox="0 0 110.656 159.743">
  <g id="Group_223" data-name="Group 223" transform="translate(-387.224 -531.793)">
    <path id="Subtraction_21" data-name="Subtraction 21" d="M51.8,158.743a66.669,66.669,0,0,1-16.012-1.786,42.717,42.717,0,0,1-12.178-5.014,36.643,36.643,0,0,1-8.89-7.728,44.085,44.085,0,0,1-6.148-9.928C1.964,119.812,1.218,101.033.5,82.873.127,73.542-.257,63.894.229,54.66.777,44.232,2.391,35.779,5.165,28.819a44.561,44.561,0,0,1,6.066-10.785,39.553,39.553,0,0,1,9.343-8.7A49.478,49.478,0,0,1,33.853,3.229,80.428,80.428,0,0,1,51.725.206C53.85.069,55.939,0,57.933,0A66.662,66.662,0,0,1,73.944,1.786,42.712,42.712,0,0,1,86.122,6.8a36.641,36.641,0,0,1,8.89,7.728,44.086,44.086,0,0,1,6.147,9.928c6.611,14.475,7.356,33.252,8.076,51.412.371,9.33.755,18.978.27,28.213-.548,10.429-2.162,18.882-4.936,25.843A44.563,44.563,0,0,1,98.5,140.71a39.551,39.551,0,0,1-9.343,8.7,49.475,49.475,0,0,1-13.279,6.109,80.42,80.42,0,0,1-17.873,3.022C55.887,158.674,53.8,158.743,51.8,158.743ZM57.545,10.052c-1.742,0-3.567.061-5.423.18C30.916,11.6,17.614,19.772,11.458,35.221,6.046,48.805,6.725,65.9,7.383,82.43c.63,15.862,1.281,32.263,7.055,44.9C21,141.706,33.352,148.692,52.191,148.693c1.736,0,3.56-.061,5.42-.18,21.207-1.365,34.509-9.539,40.665-24.989,5.413-13.586,4.733-30.679,4.074-47.21-.629-15.861-1.279-32.261-7.053-44.9C88.733,17.038,76.384,10.051,57.545,10.052Z" transform="translate(387.686 532.293)" fill="#fff" stroke="rgba(0,0,0,0)" stroke-miterlimit="10" stroke-width="1"/>
    <path id="Path_128" data-name="Path 128" d="M37.774,29.834C37.136,38,30.475,44.053,22.9,43.364S9.7,35.506,10.334,27.344s7.3-14.219,14.877-13.53,13.2,7.858,12.563,16.02" transform="translate(401.732 550.474)" fill="#fff"/>
    <path id="Path_129" data-name="Path 129" d="M39.827,29.872c-.379,4.85-4.337,8.448-8.84,8.04s-7.844-4.671-7.463-9.521,4.337-8.448,8.838-8.037,7.842,4.668,7.465,9.518" transform="translate(432.342 558.74)" fill="#fff"/>
  </g>
</svg>
