<svg xmlns="http://www.w3.org/2000/svg" width="109.734" height="158.744" viewBox="0 0 109.734 158.744">
  <g id="Group_188" data-name="Group 188" transform="translate(-785 -517.293)">
    <path id="Path_51" data-name="Path 51" d="M206.525,158.538c54.37,3.5,56.027-38.241,57.511-75.665S267.181,3.708,212.811.206,156.784,38.447,155.3,75.869s-3.141,79.167,51.229,82.669M167.445,76.652c1.155-29.062,2.44-61.479,44.665-58.76s40.934,35.136,39.782,64.2-2.442,61.479-44.665,58.76-40.937-35.136-39.782-64.2" transform="translate(630.2 517.293)" fill="#fff"/>
    <path id="Path_52" data-name="Path 52" d="M176.67,29.834c.638,8.162,7.3,14.219,14.875,13.53s13.2-7.858,12.565-16.02-7.3-14.219-14.877-13.53-13.2,7.858-12.563,16.02" transform="translate(664.244 541.474)" fill="#fff"/>
    <path id="Path_53" data-name="Path 53" d="M167.807,29.872c.379,4.85,4.337,8.448,8.838,8.04s7.847-4.671,7.465-9.521-4.337-8.448-8.838-8.037-7.844,4.668-7.465,9.518" transform="translate(650.447 553.005)" fill="#fff"/>
  </g>
</svg>
