<svg xmlns="http://www.w3.org/2000/svg" width="109.733" height="158.744" viewBox="0 0 109.733 158.744">
  <g id="Group_187" data-name="Group 187" transform="translate(-388.686 -517.293)">
    <path id="Path_48" data-name="Path 48" d="M109.235,75.869C107.75,38.447,106.094-3.3,51.724.206S-.99,45.448.5,82.873s3.141,79.164,57.511,75.665,52.714-45.244,51.226-82.669M57.307,140.85c-42.222,2.719-43.51-29.7-44.665-58.76S10.2,20.61,52.425,17.892s43.51,29.7,44.665,58.76,2.44,61.479-39.782,64.2" transform="translate(388.686 517.293)" fill="#fff"/>
    <path id="Path_49" data-name="Path 49" d="M37.774,29.834C37.136,38,30.475,44.053,22.9,43.364S9.7,35.506,10.334,27.344s7.3-14.219,14.877-13.53,13.2,7.858,12.563,16.02" transform="translate(404.733 541.474)" fill="#fff"/>
    <path id="Path_50" data-name="Path 50" d="M39.827,29.872c-.379,4.85-4.337,8.448-8.84,8.04s-7.844-4.671-7.463-9.521,4.337-8.448,8.838-8.037,7.842,4.668,7.465,9.518" transform="translate(425.342 553.005)" fill="#fff"/>
  </g>
</svg>
