<svg xmlns="http://www.w3.org/2000/svg" xmlns:xlink="http://www.w3.org/1999/xlink" width="158" height="158" viewBox="0 0 158 158">
  <defs>
    <filter id="Path_55" x="0" y="0" width="158" height="158" filterUnits="userSpaceOnUse">
      <feOffset dx="-3" dy="3" input="SourceAlpha"/>
      <feGaussianBlur stdDeviation="3" result="blur"/>
      <feFlood flood-opacity="0.2"/>
      <feComposite operator="in" in2="blur"/>
      <feComposite in="SourceGraphic"/>
    </filter>
    <clipPath id="clip-path">
      <rect id="Rectangle_593" data-name="Rectangle 593" width="98.198" height="87.947" fill="#c23f42"/>
    </clipPath>
  </defs>
  <g id="Favorites" transform="translate(7 6)">
    <g transform="matrix(1, 0, 0, 1, -7, -6)" filter="url(#Path_55)">
      <path id="Path_55-2" data-name="Path 55" d="M30.035,0h79.931A30.035,30.035,0,0,1,140,30.035v79.931A30.035,30.035,0,0,1,109.965,140H30.035A30.035,30.035,0,0,1,0,109.965V30.035A30.035,30.035,0,0,1,30.035,0Z" transform="translate(12 6)" fill="#fff"/>
    </g>
    <rect id="Rectangle_522" data-name="Rectangle 522" width="150" height="144" fill="none"/>
    <g id="Group_222" data-name="Group 222" transform="translate(25.901 28.026)">
      <g id="Group_221" data-name="Group 221" clip-path="url(#clip-path)">
        <path id="Path_135" data-name="Path 135" d="M49.488,88.179,10.8,49.488c-29.054-29.054,9.636-67.744,38.69-38.69,29.054-29.054,67.744,9.636,38.69,38.69Z" transform="translate(-0.389 -0.389)" fill="#c23f42"/>
        <path id="Path_136" data-name="Path 136" d="M49.488,88.179,10.8,49.488c-29.054-29.054,9.636-67.744,38.69-38.69,29.054-29.054,67.744,9.636,38.69,38.69Z" transform="translate(-0.389 -0.389)" fill="#c23f42"/>
      </g>
    </g>
  </g>
</svg>
