<svg xmlns="http://www.w3.org/2000/svg" xmlns:xlink="http://www.w3.org/1999/xlink" width="158" height="158" viewBox="0 0 158 158">
  <defs>
    <filter id="Rectangle_563" x="40.968" y="22.446" width="76.064" height="113.105" filterUnits="userSpaceOnUse">
      <feOffset dx="-3" dy="3" input="SourceAlpha"/>
      <feGaussianBlur stdDeviation="3" result="blur"/>
      <feFlood flood-opacity="0.2"/>
      <feComposite operator="in" in2="blur"/>
      <feComposite in="SourceGraphic"/>
    </filter>
    <filter id="Path_55" x="0" y="0" width="158" height="158" filterUnits="userSpaceOnUse">
      <feOffset dx="-3" dy="3" input="SourceAlpha"/>
      <feGaussianBlur stdDeviation="3" result="blur-2"/>
      <feFlood flood-opacity="0.2"/>
      <feComposite operator="in" in2="blur-2"/>
      <feComposite in="SourceGraphic"/>
    </filter>
    <filter id="Intersection_3" x="40.968" y="22.448" width="76.064" height="113.104" filterUnits="userSpaceOnUse">
      <feOffset dx="-3" dy="3" input="SourceAlpha"/>
      <feGaussianBlur stdDeviation="3" result="blur-3"/>
      <feFlood flood-opacity="0.2"/>
      <feComposite operator="in" in2="blur-3"/>
      <feComposite in="SourceGraphic"/>
    </filter>
  </defs>
  <g id="Help" transform="translate(12 6)">
    <g transform="matrix(1, 0, 0, 1, -12, -6)" filter="url(#Path_55)">
      <path id="Path_55-2" data-name="Path 55" d="M30.035,0h79.931A30.035,30.035,0,0,1,140,30.035v79.931A30.035,30.035,0,0,1,109.965,140H30.035A30.035,30.035,0,0,1,0,109.965V30.035A30.035,30.035,0,0,1,30.035,0Z" transform="translate(12 6)" fill="#fff"/>
    </g>
    <g transform="matrix(1, 0, 0, 1, -12, -6)" filter="url(#Intersection_3)">
      <path id="Intersection_3-2" data-name="Intersection 3" d="M57.43,107.813a9.878,9.878,0,0,1,.064-13.983A10.487,10.487,0,0,1,65,91.059a10.492,10.492,0,0,1,7.508,2.771,9.878,9.878,0,0,1,.064,13.983A10.5,10.5,0,0,1,65,110.553,10.5,10.5,0,0,1,57.43,107.813Zm-1-26.533q0-8.958,2.191-14.267a29.267,29.267,0,0,1,8.023-10.46Q72.477,51.4,74.41,48.17a13.08,13.08,0,0,0,1.933-6.818q0-10.819-10.053-10.82a10.227,10.227,0,0,0-7.636,2.915,11.4,11.4,0,0,0-3,8.04H36.968q.128-12.22,7.959-19.129t21.363-6.909q13.662,0,21.2,6.558t7.539,18.522A22.406,22.406,0,0,1,92.584,50.8q-2.45,4.829-8.571,10.716l-5.22,4.927a17.5,17.5,0,0,0-5.607,10.939l-.258,3.9Z" transform="translate(16 13)" fill="#e7ab44"/>
    </g>
  </g>
</svg>
