<svg id="Component_29_2" data-name="Component 29 – 2" xmlns="http://www.w3.org/2000/svg" xmlns:xlink="http://www.w3.org/1999/xlink" width="65" height="65" viewBox="0 0 65 65">
  <defs>
    <filter id="Rectangle_571" x="-12" y="-6" width="83" height="83" filterUnits="userSpaceOnUse">
      <feOffset dx="-3" dy="3" input="SourceAlpha"/>
      <feGaussianBlur stdDeviation="3" result="blur"/>
      <feFlood flood-opacity="0.302"/>
      <feComposite operator="in" in2="blur"/>
      <feComposite in="SourceGraphic"/>
    </filter>
    <clipPath id="clip-path">
      <g transform="matrix(1, 0, 0, 1, 0, 0)" filter="url(#Rectangle_571)">
        <rect id="Rectangle_571-2" data-name="Rectangle 571" width="65" height="65" fill="#fff"/>
      </g>
    </clipPath>
  </defs>
  <g id="Group_163" data-name="Group 163" clip-path="url(#clip-path)">
    <path id="Path_97" data-name="Path 97" d="M271.492,176.237a6.294,6.294,0,0,0-6.228,6.318v1.257h12.5v-1.325a6.251,6.251,0,0,0-6.273-6.251" transform="translate(-239.102 -158.855)" fill="#fff"/>
    <path id="Path_98" data-name="Path 98" d="M32.5,0A32.5,32.5,0,1,0,65,32.5,32.5,32.5,0,0,0,32.5,0M46.031,44.819a2.4,2.4,0,0,1-2.391,2.391H21.185a2.4,2.4,0,0,1-2.391-2.391V27.348a2.4,2.4,0,0,1,2.391-2.391h.507V23.724a10.721,10.721,0,1,1,21.442-.092v1.325h.507a2.4,2.4,0,0,1,2.391,2.391Z" fill="#fff"/>
  </g>
</svg>
