<svg xmlns="http://www.w3.org/2000/svg" xmlns:xlink="http://www.w3.org/1999/xlink" width="108" height="78" viewBox="0 0 108 78">
  <defs>
    <filter id="Path_28" x="0" y="0" width="108" height="78" filterUnits="userSpaceOnUse">
      <feOffset dx="-3" dy="3" input="SourceAlpha"/>
      <feGaussianBlur stdDeviation="3" result="blur"/>
      <feFlood flood-opacity="0.161"/>
      <feComposite operator="in" in2="blur"/>
      <feComposite in="SourceGraphic"/>
    </filter>
  </defs>
  <g id="Group_86" data-name="Group 86" transform="translate(-2712 249)">
    <rect id="Rectangle_480" data-name="Rectangle 480" width="90" height="56" rx="18" transform="translate(2724 -242)" fill="#28498f"/>
    <rect id="Rectangle_479" data-name="Rectangle 479" width="90" height="37" rx="13" transform="translate(2724 -223)" fill="#7c6c87"/>
    <rect id="Rectangle_9" data-name="Rectangle 9" width="81" height="22" rx="11" transform="translate(2729 -205)" fill="#b76f73"/>
    <g id="Rectangle_10" data-name="Rectangle 10" transform="translate(2748.844 -210.61) rotate(-7)" fill="#fff" stroke="#fff" stroke-width="1">
      <rect width="10" height="16" rx="5" stroke="none"/>
      <rect x="0.5" y="0.5" width="9" height="15" rx="4.5" fill="none"/>
    </g>
    <rect id="Rectangle_11" data-name="Rectangle 11" width="10" height="16" rx="5" transform="matrix(0.995, 0.105, -0.105, 0.995, 2779.134, -211.758)" fill="#fff"/>
    <g transform="matrix(1, 0, 0, 1, 2712, -249)" filter="url(#Path_28)">
      <g id="Path_28-2" data-name="Path 28" transform="translate(12 6)" fill="none">
        <path d="M16.813,0H73.187A17.056,17.056,0,0,1,90,17.288V42.712A17.056,17.056,0,0,1,73.187,60H16.813A17.056,17.056,0,0,1,0,42.712V17.288A17.056,17.056,0,0,1,16.813,0Z" stroke="none"/>
        <path d="M 16.81318664550781 3 C 13.13937377929688 3 9.680999755859375 4.475658416748047 7.075126647949219 7.155143737792969 C 4.447242736816406 9.857257843017578 3 13.45588684082031 3 17.28812789916992 L 3 42.71185684204102 C 3 46.54409790039062 4.447242736816406 50.14273071289062 7.075126647949219 52.84485626220703 C 9.680999755859375 55.52434158325195 13.13937377929688 57 16.81318664550781 57 L 73.18681335449219 57 C 76.86062622070312 57 80.31900024414062 55.52434158325195 82.92487335205078 52.84485626220703 C 85.55275726318359 50.14273071289062 87 46.54409790039062 87 42.71185684204102 L 87 17.28812789916992 C 87 13.45588684082031 85.55275726318359 9.857257843017578 82.92487335205078 7.155143737792969 C 80.31900024414062 4.475658416748047 76.86062622070312 3 73.18681335449219 3 L 16.81318664550781 3 M 16.81318664550781 0 L 73.18681335449219 0 C 82.47248840332031 0 90 7.740158081054688 90 17.28812789916992 L 90 42.71185684204102 C 90 52.25984191894531 82.47248840332031 60 73.18681335449219 60 L 16.81318664550781 60 C 7.527511596679688 60 0 52.25984191894531 0 42.71185684204102 L 0 17.28812789916992 C 0 7.740158081054688 7.527511596679688 0 16.81318664550781 0 Z" stroke="none" fill="#fff"/>
      </g>
    </g>
  </g>
</svg>
