<svg xmlns="http://www.w3.org/2000/svg" xmlns:xlink="http://www.w3.org/1999/xlink" width="158" height="158" viewBox="0 0 158 158">
  <defs>
    <filter id="Path_55" x="0" y="0" width="158" height="158" filterUnits="userSpaceOnUse">
      <feOffset dx="-3" dy="3" input="SourceAlpha"/>
      <feGaussianBlur stdDeviation="3" result="blur"/>
      <feFlood flood-opacity="0.2"/>
      <feComposite operator="in" in2="blur"/>
      <feComposite in="SourceGraphic"/>
    </filter>
    <clipPath id="clip-path">
      <rect id="Rectangle_550" data-name="Rectangle 550" width="100.463" height="117.197" fill="#00a0db"/>
    </clipPath>
    <clipPath id="clip-path-2">
      <rect id="Rectangle_552" data-name="Rectangle 552" width="56.029" height="24.883" fill="#00a0db"/>
    </clipPath>
  </defs>
  <g id="Open_Lid" data-name="Open Lid" transform="translate(12 6)">
    <g id="Group_1" data-name="Group 1" transform="translate(-3902.75 154)">
      <g transform="matrix(1, 0, 0, 1, 3890.75, -160)" filter="url(#Path_55)">
        <path id="Path_55-2" data-name="Path 55" d="M30.035,0h79.931A30.035,30.035,0,0,1,140,30.035v79.931A30.035,30.035,0,0,1,109.965,140H30.035A30.035,30.035,0,0,1,0,109.965V30.035A30.035,30.035,0,0,1,30.035,0Z" transform="translate(12 6)" fill="#fff"/>
      </g>
    </g>
    <g id="Group_117" data-name="Group 117" transform="translate(22.269 22.84)">
      <g id="Group_116" data-name="Group 116" clip-path="url(#clip-path)">
        <path id="Path_68" data-name="Path 68" d="M7.673,71.681,12.256,0H8.788S.824,41.749.053,62.688C-.392,74.794,2.076,78.439,4.238,79.36,6.245,91.454,7.8,104.32,8.837,117.2H81.145c.1-4,.325-6.627.435-7.755.45-4.6,18.883-27.091,18.883-27.091S85.717,70.694,82.214,67.662Z" transform="translate(0)" fill="#00a0db"/>
      </g>
    </g>
    <g id="Group_122" data-name="Group 122" transform="matrix(0.695, 0.719, -0.719, 0.695, 58.252, 17.294)">
      <g id="Group_120" data-name="Group 120" transform="translate(0 0)" clip-path="url(#clip-path-2)">
        <path id="Path_70" data-name="Path 70" d="M0,19.445,4.46,1.8,8.546,6.022A29.7,29.7,0,0,1,26.492,0,30.1,30.1,0,0,1,56.029,24.883h-7.3A22.919,22.919,0,0,0,26.492,7.21a22.617,22.617,0,0,0-12.9,4.028L17.91,15.7Z" transform="translate(0 0)" fill="#00a0db"/>
      </g>
    </g>
  </g>
</svg>
