<svg xmlns="http://www.w3.org/2000/svg" xmlns:xlink="http://www.w3.org/1999/xlink" width="158" height="158" viewBox="0 0 158 158">
  <defs>
    <filter id="Path_55" x="0" y="0" width="158" height="158" filterUnits="userSpaceOnUse">
      <feOffset dx="-3" dy="3" input="SourceAlpha"/>
      <feGaussianBlur stdDeviation="3" result="blur"/>
      <feFlood flood-opacity="0.2"/>
      <feComposite operator="in" in2="blur"/>
      <feComposite in="SourceGraphic"/>
    </filter>
    <clipPath id="clip-path">
      <rect id="Rectangle_620" data-name="Rectangle 620" width="105.807" height="113.787" transform="translate(0 -9)" fill="none"/>
    </clipPath>
  </defs>
  <g id="Group_246" data-name="Group 246" transform="translate(-980.25 -204)">
    <g id="Group_1" data-name="Group 1" transform="translate(-2907.75 366)">
      <g transform="matrix(1, 0, 0, 1, 3888, -162)" filter="url(#Path_55)">
        <path id="Path_55-2" data-name="Path 55" d="M30.035,0h79.931A30.035,30.035,0,0,1,140,30.035v79.931A30.035,30.035,0,0,1,109.965,140H30.035A30.035,30.035,0,0,1,0,109.965V30.035A30.035,30.035,0,0,1,30.035,0Z" transform="translate(12 6)" fill="#fff"/>
      </g>
    </g>
    <g id="Group_245" data-name="Group 245" transform="translate(1009.347 227.625)">
      <g id="Group_244" data-name="Group 244" clip-path="url(#clip-path)">
        <path id="Path_147" data-name="Path 147" d="M105.692,330.351,94.643,272.173a6.43,6.43,0,0,0-6.317-5.23H17.481a6.43,6.43,0,0,0-6.317,5.23L.115,330.351a6.43,6.43,0,0,0,6.317,7.629H99.375a6.43,6.43,0,0,0,6.317-7.629" transform="translate(0 -233.193)" fill="#414141"/>
        <path id="Path_148" data-name="Path 148" d="M139.376,349.141l-9.859-51.912a5.737,5.737,0,0,0-5.636-4.667H60.666a5.737,5.737,0,0,0-5.636,4.667l-9.859,51.912a5.737,5.737,0,0,0,5.636,6.808H133.74a5.737,5.737,0,0,0,5.636-6.808" transform="translate(-39.37 -255.573)" fill="#707070"/>
        <path id="Path_149" data-name="Path 149" d="M101.812,323.864l37.109,28.808a5.693,5.693,0,0,0,.454-3.531l-4.615-24.3-42.488-32.28H66.19l18.31,16.95L47.881,334.866h0L45.17,349.141a5.737,5.737,0,0,0,5.636,6.808H98.015L79.809,340.563Z" transform="translate(-39.369 -255.573)" fill="#fff"/>
        <path id="Path_150" data-name="Path 150" d="M273.1,0A24.829,24.829,0,0,0,249.3,32.972h0q.089.256.183.51c1.4,3.872,10.621,19.541,20.585,36.38a3.109,3.109,0,0,0,5.351,0c9.964-16.84,19.186-32.509,20.585-36.38q.094-.254.183-.51h0A24.83,24.83,0,0,0,273.1,0m-.35,35.691a10.475,10.475,0,1,1,10.475-10.475,10.475,10.475,0,0,1-10.475,10.475" transform="translate(-220.962 -4.705)" fill="#0090d4"/>
      </g>
    </g>
  </g>
</svg>
