<svg xmlns="http://www.w3.org/2000/svg" xmlns:xlink="http://www.w3.org/1999/xlink" width="158" height="158" viewBox="0 0 158 158">
  <defs>
    <filter id="Path_55" x="0" y="0" width="158" height="158" filterUnits="userSpaceOnUse">
      <feOffset dx="-3" dy="3" input="SourceAlpha"/>
      <feGaussianBlur stdDeviation="3" result="blur"/>
      <feFlood flood-opacity="0.2"/>
      <feComposite operator="in" in2="blur"/>
      <feComposite in="SourceGraphic"/>
    </filter>
    <clipPath id="clip-path">
      <rect id="Rectangle_557" data-name="Rectangle 557" width="105" height="105" fill="#004b66"/>
    </clipPath>
  </defs>
  <g id="Status" transform="translate(12 6)">
    <g id="Group_57" data-name="Group 57" transform="translate(-134 -206)">
      <g transform="matrix(1, 0, 0, 1, 122, 200)" filter="url(#Path_55)">
        <path id="Path_55-2" data-name="Path 55" d="M30.035,0h79.931A30.035,30.035,0,0,1,140,30.035v79.931A30.027,30.027,0,0,1,109.965,140H30.035A30.035,30.035,0,0,1,0,109.965V30.035A30.035,30.035,0,0,1,30.035,0Z" transform="translate(12 6)" fill="#fff"/>
      </g>
    </g>
    <g id="Group_131" data-name="Group 131" transform="translate(14.417 14.416)">
      <g id="Group_130" data-name="Group 130" transform="translate(3.083 3.085)" clip-path="url(#clip-path)">
        <path id="Path_74" data-name="Path 74" d="M52.5,0A52.5,52.5,0,1,0,105,52.5,52.5,52.5,0,0,0,52.5,0M71.248,50.269c-.684,3.466-2.514,11.676-4.564,12.123A64.784,64.784,0,0,1,52.5,63.627a64.784,64.784,0,0,1-14.185-1.235c-2.05-.447-3.879-8.657-4.564-12.123a1.171,1.171,0,0,1,1.233-1.395c3.966.283,12.568.638,17.516.638s13.55-.355,17.516-.638a1.171,1.171,0,0,1,1.233,1.395m2.56-11.25c-.184,4.221-.817,5.472-1.3,6.557s-1.268,1.518-2.936,1.8-6.881.868-17.071.868-15.4-.584-17.071-.868-2.452-.717-2.936-1.8-1.118-2.336-1.3-6.557a14.029,14.029,0,0,1,.6-5.378,1.077,1.077,0,0,1,.736-.671c5.062-1.328,14.2-1.783,19.969-1.783s14.907.455,19.969,1.783a1.077,1.077,0,0,1,.736.671,14.029,14.029,0,0,1,.6,5.378M84.965,88.976c-.577-12,4-46.954,4-46.954-2.728-1.777-9.059-3.1-11.612-3.7s-2.521-1.853-2.853-3.353c-.576-2.6-.943-2.369-3.729-2.853A130.119,130.119,0,0,0,52.5,30.735a130.119,130.119,0,0,0-18.272,1.376c-2.786.484-3.153.25-3.729,2.853-.332,1.5-.3,2.753-2.853,3.353s-8.884,1.927-11.612,3.7c0,0,4.577,34.951,4,46.954a48.83,48.83,0,1,1,64.93,0" transform="translate(0 -0.002)" fill="#004b66"/>
        <path id="Path_75" data-name="Path 75" d="M1354.141,884.255a1.5,1.5,0,0,1,1.073.39,1.342,1.342,0,0,1,.406,1,1.306,1.306,0,0,1-.406,1,1.663,1.663,0,0,1-2.137,0,1.3,1.3,0,0,1-.405-1,1.338,1.338,0,0,1,.405-1,1.455,1.455,0,0,1,1.063-.4m1.1-1.446h-2.19l-.312-9.207h2.813Z" transform="translate(-1301.582 -840.603)" fill="#004b66"/>
        <path id="Path_76" data-name="Path 76" d="M841.487,419.947a.856.856,0,0,0-.332-.723,4.282,4.282,0,0,0-1.2-.528,8.96,8.96,0,0,1-1.366-.554,2.228,2.228,0,0,1-1.372-1.995,1.958,1.958,0,0,1,.368-1.169,2.389,2.389,0,0,1,1.057-.794,3.922,3.922,0,0,1,1.546-.292,3.593,3.593,0,0,1,1.538.318,2.419,2.419,0,0,1,1.049.877,2.317,2.317,0,0,1,.373,1.3h-1.659a1.088,1.088,0,0,0-.349-.861,1.457,1.457,0,0,0-.979-.3,1.515,1.515,0,0,0-.946.256.8.8,0,0,0-.337.671.774.774,0,0,0,.395.662,4.547,4.547,0,0,0,1.165.5,5.081,5.081,0,0,1,2.064,1.056,2.116,2.116,0,0,1,.646,1.574,1.937,1.937,0,0,1-.791,1.641,3.476,3.476,0,0,1-2.13.595,4.139,4.139,0,0,1-1.693-.338,2.756,2.756,0,0,1-1.165-.933,2.406,2.406,0,0,1-.4-1.374h1.665c0,.887.531,1.333,1.594,1.333a1.558,1.558,0,0,0,.924-.241.779.779,0,0,0,.332-.671" transform="translate(-805.36 -398.258)" fill="#004b66"/>
        <path id="Path_77" data-name="Path 77" d="M1023.711,418.165h-2.468v6.711h-1.659v-6.711h-2.435v-1.343h6.562Z" transform="translate(-978.732 -401.078)" fill="#004b66"/>
        <path id="Path_78" data-name="Path 78" d="M1185.562,423.22h-2.91l-.554,1.661h-1.765l3-8.06h1.538l3.016,8.06h-1.765Zm-2.461-1.344h2.013l-1.012-3.015Z" transform="translate(-1135.753 -401.079)" fill="#004b66"/>
        <path id="Path_79" data-name="Path 79" d="M1376.006,418.165h-2.467v6.711h-1.66v-6.711h-2.434v-1.343h6.561Z" transform="translate(-1317.722 -401.078)" fill="#004b66"/>
        <path id="Path_80" data-name="Path 80" d="M1572.348,416.822v5.306a2.732,2.732,0,0,1-.828,2.1,3.187,3.187,0,0,1-2.26.769,3.229,3.229,0,0,1-2.24-.748,2.689,2.689,0,0,1-.848-2.056v-5.368h1.66v5.321a1.551,1.551,0,0,0,.379,1.154,1.464,1.464,0,0,0,1.049.364q1.4,0,1.422-1.477v-5.362Z" transform="translate(-1507.018 -401.079)" fill="#004b66"/>
        <path id="Path_81" data-name="Path 81" d="M1761.266,419.947a.858.858,0,0,0-.332-.723,4.324,4.324,0,0,0-1.2-.528,8.819,8.819,0,0,1-1.365-.554,2.227,2.227,0,0,1-1.373-1.995,1.957,1.957,0,0,1,.367-1.169,2.389,2.389,0,0,1,1.057-.794,3.923,3.923,0,0,1,1.547-.292,3.588,3.588,0,0,1,1.537.318,2.419,2.419,0,0,1,1.049.877,2.31,2.31,0,0,1,.373,1.3h-1.66a1.088,1.088,0,0,0-.348-.861,1.458,1.458,0,0,0-.98-.3,1.512,1.512,0,0,0-.945.256.8.8,0,0,0-.336.671.772.772,0,0,0,.395.662,4.538,4.538,0,0,0,1.164.5,5.068,5.068,0,0,1,2.064,1.056,2.112,2.112,0,0,1,.646,1.574,1.937,1.937,0,0,1-.791,1.641,3.473,3.473,0,0,1-2.129.595,4.132,4.132,0,0,1-1.693-.338,2.729,2.729,0,0,1-1.164-.933,2.4,2.4,0,0,1-.4-1.374h1.666c0,.887.531,1.333,1.594,1.333a1.562,1.562,0,0,0,.924-.241.782.782,0,0,0,.332-.671" transform="translate(-1690.398 -398.258)" fill="#004b66"/>
      </g>
    </g>
  </g>
</svg>
