<svg xmlns="http://www.w3.org/2000/svg" xmlns:xlink="http://www.w3.org/1999/xlink" width="158" height="158" viewBox="0 0 158 158">
  <defs>
    <filter id="Path_55" x="0" y="0" width="158" height="158" filterUnits="userSpaceOnUse">
      <feOffset dx="-3" dy="3" input="SourceAlpha"/>
      <feGaussianBlur stdDeviation="3" result="blur"/>
      <feFlood flood-opacity="0.2"/>
      <feComposite operator="in" in2="blur"/>
      <feComposite in="SourceGraphic"/>
    </filter>
    <filter id="_Color" x="21" y="20" width="116" height="122" filterUnits="userSpaceOnUse">
      <feOffset dx="-3" dy="3" input="SourceAlpha"/>
      <feGaussianBlur stdDeviation="3" result="blur-2"/>
      <feFlood flood-opacity="0.2"/>
      <feComposite operator="in" in2="blur-2"/>
      <feComposite in="SourceGraphic"/>
    </filter>
  </defs>
  <g id="icon-action-settings_24px" transform="translate(10 6)">
    <rect id="Boundary" width="144" height="144" fill="#fff"/>
    <g transform="matrix(1, 0, 0, 1, -10, -6)" filter="url(#Path_55)">
      <path id="Path_55-2" data-name="Path 55" d="M30.035,0h79.931A30.035,30.035,0,0,1,140,30.035v79.931A30.035,30.035,0,0,1,109.965,140H30.035A30.035,30.035,0,0,1,0,109.965V30.035A30.035,30.035,0,0,1,30.035,0Z" transform="translate(12 6)" fill="#fff"/>
    </g>
    <g transform="matrix(1, 0, 0, 1, -10, -6)" filter="url(#_Color)">
      <path id="_Color-2" data-name=" ↳Color" d="M59.078,104H38.921a2.583,2.583,0,0,1-2.523-2.208L34.508,88.01A36.5,36.5,0,0,1,26,82.94l-12.535,5.2a2.676,2.676,0,0,1-.872.146,2.473,2.473,0,0,1-2.213-1.316L.3,68.968a2.746,2.746,0,0,1,.633-3.315l10.645-8.58A33.964,33.964,0,0,1,11.2,52a33.343,33.343,0,0,1,.439-5.07L.994,38.352a2.568,2.568,0,0,1-.628-3.315L10.444,17.029a2.5,2.5,0,0,1,2.189-1.343,2.4,2.4,0,0,1,.9.173l12.54,5.2a37.708,37.708,0,0,1,8.5-5.07l1.89-13.782A2.479,2.479,0,0,1,38.921,0H59.078A2.546,2.546,0,0,1,61.6,2.208l1.89,13.782A36.681,36.681,0,0,1,72,21.06l12.535-5.2a2.676,2.676,0,0,1,.872-.146,2.473,2.473,0,0,1,2.213,1.316L97.7,35.037a2.741,2.741,0,0,1-.633,3.315l-10.645,8.58A33.392,33.392,0,0,1,86.8,52a43.738,43.738,0,0,1-.317,5.07l10.523,8.58a2.568,2.568,0,0,1,.628,3.315l-10.078,18a2.5,2.5,0,0,1-2.189,1.343,2.4,2.4,0,0,1-.9-.173l-12.54-5.2a37.353,37.353,0,0,1-8.5,5.07l-1.89,13.782A2.415,2.415,0,0,1,59.078,104ZM49,32.5C38.578,32.5,30.1,41.25,30.1,52S38.578,71.5,49,71.5,67.9,62.755,67.9,52,59.421,32.5,49,32.5Z" transform="translate(33 26)" fill="#707070"/>
    </g>
  </g>
</svg>
